<svg width="64" height="64" viewBox="0 0 64 64" fill="none" xmlns="http://www.w3.org/2000/svg">
<path d="M32 13C33.6569 13 35 11.6569 35 10C35 8.34315 33.6569 7 32 7C30.3431 7 29 8.34315 29 10C29 11.6569 30.3431 13 32 13Z" stroke="black" stroke-width="6" stroke-linecap="round" stroke-linejoin="round"/>
<path d="M32 35C33.6569 35 35 33.6569 35 32C35 30.3431 33.6569 29 32 29C30.3431 29 29 30.3431 29 32C29 33.6569 30.3431 35 32 35Z" stroke="black" stroke-width="6" stroke-linecap="round" stroke-linejoin="round"/>
<path d="M32 57C33.6569 57 35 55.6569 35 54C35 52.3431 33.6569 51 32 51C30.3431 51 29 52.3431 29 54C29 55.6569 30.3431 57 32 57Z" stroke="black" stroke-width="6" stroke-linecap="round" stroke-linejoin="round"/>
</svg>
